<svg width="32" height="32" viewBox="0 0 32 32" fill="none" xmlns="http://www.w3.org/2000/svg">
<path d="M16.0135 6C19.4268 6 22.2037 8.6446 22.2037 11.8954C22.2037 14.0994 20.9306 16.0274 19.0799 17.0196C22.8402 18.1766 25.617 21.3172 25.9639 25.229C26.0796 26.2204 24.1125 26.2759 24.0551 25.3392C23.6498 21.4274 20.1209 18.4524 16.0135 18.4524C11.848 18.4524 8.37732 21.4274 7.97202 25.3392C7.85635 26.2759 5.88924 26.2204 6.00491 25.229C6.41014 21.372 9.18683 18.1766 12.8889 17.0196C11.0375 16.0282 9.76517 14.0992 9.76517 11.8954C9.76517 8.6446 12.6002 6 16.0135 6ZM16.0135 7.87344C13.642 7.87344 11.7322 9.6914 11.7322 11.8952C11.7322 14.1538 13.6411 15.9726 16.0135 15.9726C18.3277 15.9726 20.2364 14.1547 20.2364 11.8952C20.2364 9.69124 18.3275 7.87344 16.0135 7.87344Z" fill="#737680"/>
</svg>
