<svg width="31" height="29" viewBox="0 0 31 29" fill="none" xmlns="http://www.w3.org/2000/svg">
<path d="M12.8359 21.9554C11.0118 21.9554 9.50781 23.4595 9.50781 25.2835C9.50781 27.1075 11.0119 28.6116 12.8359 28.6116C14.6601 28.6129 16.164 27.1088 16.164 25.2845C16.164 23.4602 14.6599 21.9551 12.8359 21.9551V21.9554ZM12.8359 26.5964C12.0995 26.5964 11.5231 26.0201 11.5231 25.2836C11.5231 24.5472 12.0995 23.9708 12.8359 23.9708C13.5723 23.9708 14.1487 24.5472 14.1487 25.2836C14.1475 25.9888 13.5399 26.5964 12.8359 26.5964Z" fill="white"/>
<path d="M23.8476 21.9551C22.0235 21.9551 20.5195 23.4592 20.5195 25.2832C20.5195 27.1072 22.0236 28.6113 23.8476 28.6113C25.6717 28.6113 27.1757 27.1072 27.1757 25.2832C27.1445 23.4603 25.6717 21.9551 23.8476 21.9551ZM23.8476 26.5961C23.1112 26.5961 22.5348 26.0197 22.5348 25.2833C22.5348 24.5469 23.1112 23.9705 23.8476 23.9705C24.5841 23.9705 25.1604 24.5469 25.1604 25.2833C25.1604 25.9885 24.5516 26.5961 23.8476 26.5961Z" fill="white"/>
<path d="M18.8034 13.6932C18.6951 13.6932 18.5879 13.6757 18.4842 13.6417C18.4739 13.6386 18.4658 13.6366 18.4577 13.6324C18.3402 13.5892 18.2377 13.5294 18.1512 13.4511L14.8342 10.6196C14.6591 10.465 14.5635 10.2569 14.5635 10.0374C14.5635 9.81794 14.6591 9.60978 14.8342 9.45522C15.007 9.29962 15.2398 9.21307 15.4852 9.21307C15.7306 9.21307 15.9633 9.29859 16.1361 9.45522L17.8817 10.8801V1.87709C17.8817 1.42265 18.2941 1.05273 18.8034 1.05273C19.3126 1.05273 19.7251 1.42162 19.7251 1.87709V10.878L21.4706 9.45311C21.6446 9.29751 21.8762 9.21095 22.1216 9.21095C22.367 9.21095 22.5997 9.29648 22.7725 9.45311C22.9465 9.60768 23.0433 9.81583 23.0433 10.0353C23.0433 10.2548 22.9476 10.4629 22.7725 10.6175L19.4543 13.449C19.3679 13.5262 19.2665 13.586 19.1525 13.6293C19.1421 13.6324 19.1317 13.6365 19.1202 13.6406C19.0154 13.6767 18.9105 13.6932 18.8034 13.6932Z" fill="white"/>
<path fill-rule="evenodd" clip-rule="evenodd" d="M27.3334 4.7048C28.2611 4.7048 29.1576 5.15239 29.734 5.88881L29.7339 5.8889C30.3428 6.62533 30.5341 7.58554 30.3103 8.48325L27.9097 18.3418C27.5897 19.7183 26.3406 20.6786 24.9328 20.6786H12.1626C10.7535 20.6786 9.53827 19.7183 9.18567 18.3418L5.28112 2.78565C5.1536 2.30554 4.73725 1.98547 4.25715 1.98547H0.992735C0.447588 1.98547 0 1.5366 0 0.992734C0 0.447588 0.448869 0 0.992735 0H4.25715C5.66623 0 6.88148 0.960215 7.23407 2.33678L7.84169 4.7048H14.8529V6.7217H8.35429L11.1387 17.8916C11.2662 18.3717 11.6825 18.6917 12.1626 18.6917H24.9341C25.4142 18.6917 25.8306 18.3717 25.9581 17.8916L28.3586 8.03303L28.3589 8.03326C28.4539 7.71318 28.3589 7.39311 28.1676 7.13805C27.975 6.88173 27.6549 6.7217 27.3349 6.7217H22.7532V4.7048H27.3334Z" fill="white"/>
</svg>
