<svg width="23" height="16" viewBox="0 0 23 16" fill="none" xmlns="http://www.w3.org/2000/svg">
<path d="M21.7133 4.30032C21.2924 3.76255 20.6378 3.4357 19.9603 3.4357H5.72643L5.28271 1.70644C5.02523 0.701201 4.13779 0 3.1088 0H0.724948C0.327788 0 0 0.326853 0 0.724948C0 1.12211 0.326853 1.4499 0.724948 1.4499H3.1088C3.4594 1.4499 3.76344 1.68363 3.85656 2.03423L6.70787 13.3941C6.96535 14.3994 7.85279 15.1006 8.88178 15.1006H18.2073C19.2353 15.1006 20.1475 14.3994 20.3812 13.3941L22.1342 6.19492C22.2976 5.53937 22.1579 4.83817 21.7133 4.30039L21.7133 4.30032ZM20.709 5.86615L18.956 13.0654C18.8629 13.416 18.5588 13.6497 18.2082 13.6497H8.88181C8.53121 13.6497 8.22717 13.416 8.13405 13.0654L6.10075 4.90855H19.9614C20.1951 4.90855 20.4289 5.02541 20.5695 5.21259C20.7092 5.39884 20.7785 5.63258 20.7092 5.86632L20.709 5.86615Z" fill="#1D1F22"/>
</svg>
