<svg width="8" height="12" viewBox="0 0 8 12" fill="none" xmlns="http://www.w3.org/2000/svg">
<path d="M6.88181 0.0901496L5.2591 0.0878906C3.43657 0.0878906 2.25817 1.20518 2.25817 2.93414V4.24664H0.627207C0.486444 4.24664 0.37207 4.35236 0.37207 4.48248V6.38402C0.37207 6.51414 0.486439 6.61986 0.627207 6.61986H2.25867V11.4179C2.25867 11.548 2.37304 11.6537 2.51381 11.6537H4.64239C4.78315 11.6537 4.89752 11.548 4.89752 11.4179L4.89703 6.61986H6.80464C6.94541 6.61986 7.05978 6.51415 7.05978 6.38402L7.06076 4.48248C7.06076 4.42013 7.03388 4.36004 6.98598 4.31577C6.93808 4.27149 6.87308 4.24664 6.80563 4.24664H4.89702V3.13433C4.89702 2.5994 5.03485 2.32832 5.78851 2.32832L6.88138 2.32787C7.02214 2.32787 7.13651 2.22215 7.13651 2.09203V0.325921C7.13651 0.196255 7.02263 0.0905316 6.88186 0.0900805L6.88181 0.0901496Z" fill="#172ACB"/>
</svg>
