<svg width="22" height="20" viewBox="0 0 22 20" fill="none" xmlns="http://www.w3.org/2000/svg">
<path d="M10.9995 20C10.7978 20 10.5961 19.9319 10.4282 19.7955L9.94148 19.4003C5.47105 15.7772 2.77306 13.5897 1.20252 10.6711C-0.30323 7.88234 -0.122354 5.67954 0.292805 4.32356C0.799052 2.67561 1.93781 1.34939 3.50213 0.588838C4.30643 0.199001 5.18099 0 6.0985 0C8.03893 0 9.8323 0.865549 10.9997 2.29265C12.1671 0.865549 13.9592 0 15.9009 0C16.8184 0 17.6917 0.197644 18.496 0.587477C20.0603 1.34806 21.2004 2.67296 21.7066 4.3222C22.1231 5.67707 22.3027 7.87965 20.7969 10.6698C19.2248 13.5881 16.5231 15.7786 12.0473 19.4069L11.5723 19.7954C11.4031 19.9317 11.2013 19.9999 10.9996 19.9999L10.9995 20ZM6.0983 1.9573C5.45279 1.9573 4.84373 2.0936 4.28671 2.3635C3.20132 2.89099 2.41394 3.7988 2.07038 4.92194C1.637 6.3327 1.89989 7.98882 2.8278 9.70906C4.20471 12.2675 6.6229 14.2373 10.998 17.7853C15.3735 14.2387 17.7916 12.2665 19.1683 9.71046C20.0975 7.98892 20.3591 6.33281 19.927 4.92194C19.5821 3.80016 18.7948 2.89099 17.7094 2.3635C17.1537 2.09361 16.5446 1.9573 15.8991 1.9573C14.1461 1.9573 12.5168 2.97687 11.8451 4.49392C11.6929 4.84014 11.361 5.06095 10.9979 5.06095C10.6335 5.06095 10.3042 4.84014 10.1506 4.49392C9.48041 2.97683 7.85102 1.9573 6.098 1.9573H6.0983Z" fill="#A3A5AD"/>
</svg>
