<svg width="20" height="21" viewBox="0 0 20 21" fill="none" xmlns="http://www.w3.org/2000/svg">
<path d="M9.98687 0C13.3911 0 16.1606 2.65963 16.1606 5.9289C16.1606 8.14542 14.8908 10.0844 13.0451 11.0822C16.7954 12.2458 19.5648 15.4042 19.9108 19.3383C20.0262 20.3353 18.0643 20.3911 18.0071 19.449C17.6029 15.515 14.0834 12.5231 9.98692 12.5231C5.83243 12.5231 2.37099 15.515 1.96677 19.449C1.85142 20.3911 -0.110468 20.3353 0.00489243 19.3383C0.409052 15.4593 3.17835 12.2458 6.87059 11.0822C5.02407 10.0852 3.75515 8.14522 3.75515 5.9289C3.75515 2.65963 6.58261 0 9.98687 0ZM9.98687 1.88408C7.62165 1.88408 5.71699 3.71237 5.71699 5.92874C5.71699 8.20017 7.62077 10.0293 9.98687 10.0293C12.2949 10.0293 14.1985 8.20101 14.1985 5.92874C14.1985 3.71221 12.2948 1.88408 9.98687 1.88408Z" fill="#A3A5AD"/>
</svg>
