<svg width="32" height="32" viewBox="0 0 32 32" fill="none" xmlns="http://www.w3.org/2000/svg">
<path d="M25.7133 10.3003C25.2924 9.76255 24.6378 9.4357 23.9603 9.4357H9.72643L9.28271 7.70644C9.02523 6.7012 8.13779 6 7.1088 6H4.72495C4.32779 6 4 6.32685 4 6.72495C4 7.12211 4.32685 7.4499 4.72495 7.4499H7.1088C7.4594 7.4499 7.76344 7.68363 7.85656 8.03423L10.7079 19.3941C10.9654 20.3994 11.8528 21.1006 12.8818 21.1006H22.2073C23.2353 21.1006 24.1475 20.3994 24.3812 19.3941L26.1342 12.1949C26.2976 11.5394 26.1579 10.8382 25.7133 10.3004L25.7133 10.3003ZM24.709 11.8662L22.956 19.0654C22.8629 19.416 22.5588 19.6497 22.2082 19.6497H12.8818C12.5312 19.6497 12.2272 19.416 12.134 19.0654L10.1007 10.9085H23.9614C24.1951 10.9085 24.4289 11.0254 24.5695 11.2126C24.7092 11.3988 24.7785 11.6326 24.7092 11.8663L24.709 11.8662Z" fill="#737680"/>
<path d="M13.3737 22.0334C12.0416 22.0334 10.9434 23.1318 10.9434 24.4638C10.9434 25.7958 12.0417 26.8942 13.3737 26.8942C14.7058 26.8951 15.8041 25.7967 15.8041 24.4645C15.8041 23.1323 14.7057 22.0332 13.3737 22.0332V22.0334ZM13.3737 25.4226C12.8359 25.4226 12.415 25.0017 12.415 24.4639C12.415 23.9261 12.8359 23.5052 13.3737 23.5052C13.9115 23.5052 14.3324 23.9261 14.3324 24.4639C14.3315 24.9788 13.8878 25.4226 13.3737 25.4226Z" fill="#737680"/>
<path d="M21.4128 22.0332C20.0807 22.0332 18.9824 23.1316 18.9824 24.4636C18.9824 25.7956 20.0808 26.8939 21.4128 26.8939C22.7448 26.8939 23.8431 25.7956 23.8431 24.4636C23.8203 23.1324 22.7448 22.0332 21.4128 22.0332ZM21.4128 25.4223C20.875 25.4223 20.4541 25.0014 20.4541 24.4637C20.4541 23.9259 20.875 23.505 21.4128 23.505C21.9506 23.505 22.3715 23.9259 22.3715 24.4637C22.3715 24.9786 21.9268 25.4223 21.4128 25.4223Z" fill="#737680"/>
</svg>
