<svg width="32" height="32" viewBox="0 0 32 32" fill="none" xmlns="http://www.w3.org/2000/svg">
<path d="M15.9994 28C15.7426 28 15.4859 27.9216 15.2723 27.7649L14.6528 27.3103C8.96315 23.1438 5.52935 20.6281 3.53048 17.2718C1.61407 14.0647 1.84428 11.5315 2.37266 9.97209C3.01698 8.07695 4.46631 6.5518 6.45726 5.67716C7.48091 5.22885 8.59399 5 9.76173 5C12.2314 5 14.5138 5.99538 15.9996 7.63655C17.4854 5.99538 19.7662 5 22.2375 5C23.4053 5 24.5167 5.22729 25.5404 5.6756C27.5313 6.55027 28.9823 8.0739 29.6266 9.97053C30.1566 11.5286 30.3852 14.0616 28.4688 17.2703C26.4679 20.6263 23.0293 23.1454 17.3329 27.318L16.7283 27.7647C16.513 27.9215 16.2561 28 15.9994 28Z" fill="#1D1F22"/>
</svg>
